<?xml version="1.0" encoding="UTF-8" standalone="no"?>
<!-- Created with Inkscape (http://www.inkscape.org/) -->

<svg
   width="297mm"
   height="210mm"
   viewBox="0 0 297 210"
   version="1.1"
   id="svg1"
   xml:space="preserve"
   inkscape:export-filename="Vogel_symbol.svg"
   inkscape:export-xdpi="96"
   inkscape:export-ydpi="96"
   sodipodi:docname="Vogel_bubble.svg"
   inkscape:version="1.4.2 (f4327f4, 2025-05-13)"
   xmlns:inkscape="http://www.inkscape.org/namespaces/inkscape"
   xmlns:sodipodi="http://sodipodi.sourceforge.net/DTD/sodipodi-0.dtd"
   xmlns="http://www.w3.org/2000/svg"
   xmlns:svg="http://www.w3.org/2000/svg"><sodipodi:namedview
     id="namedview1"
     pagecolor="#ffffff"
     bordercolor="#666666"
     borderopacity="1.0"
     inkscape:showpageshadow="2"
     inkscape:pageopacity="0.0"
     inkscape:pagecheckerboard="0"
     inkscape:deskcolor="#d1d1d1"
     inkscape:document-units="mm"
     inkscape:zoom="1.0467523"
     inkscape:cx="396.46439"
     inkscape:cy="561.25983"
     inkscape:window-width="2560"
     inkscape:window-height="1377"
     inkscape:window-x="-8"
     inkscape:window-y="-8"
     inkscape:window-maximized="1"
     inkscape:current-layer="layer1"><inkscape:page
       x="0"
       y="0"
       width="297"
       height="210"
       id="page2"
       margin="0"
       bleed="0" /></sodipodi:namedview><defs
     id="defs1" /><g
     inkscape:label="Ebene 1"
     inkscape:groupmode="layer"
     id="layer1"><path
       style="fill:#52a9d9;fill-opacity:1;stroke:none;stroke-width:0.650883px;stroke-linecap:butt;stroke-linejoin:miter;stroke-opacity:1"
       d="m 44.505863,153.87422 c 1.988436,23.38181 64.959787,7.1556 82.031247,12.07024 7.3889,2.12716 12.77724,8.98532 19.59635,12.07023 11.72186,5.30291 25.28558,10.99057 37.82553,12.59505 31.54939,4.03674 78.22105,-5.05868 101.62757,-32.01241 6.11791,-7.04504 6.43286,-16.88116 8.20312,-25.71486 3.24764,-16.20577 -4.46493,-31.06664 -15.49476,-41.458696 -29.46799,-27.763987 -59.36154,-10.0538 -82.9427,-26.76444 -4.68105,-3.317206 -5.76115,-10.66141 -10.02605,-14.169428 C 175.2365,42.190788 165.4864,36.405963 152.51366,34.746093 103.63233,28.49174 108.7859,73.836804 82.331378,81.452694 c -14.143727,4.0718 -25.515473,-10.60205 -39.648429,-7.3471 -20.95288,4.82567 -47.1630424,30.717446 -39.1927061,58.252066 4.0204693,13.88927 39.8499341,7.72106 41.0156201,21.51656 z"
       id="path41"
       sodipodi:nodetypes="cssssssssssssc" /></g></svg>
